<svg width="64" height="64" viewBox="0 0 64 64" fill="none" xmlns="http://www.w3.org/2000/svg">
<rect width="64" height="64" rx="32" fill="white"/>
<path fill-rule="evenodd" clip-rule="evenodd" d="M21.3921 24H23.7576C24.8621 24 25.7576 24.8954 25.7576 26C25.7576 27.1046 24.8621 28 23.7576 28H16C14.8954 28 14 27.1046 14 26V18C14 16.8954 14.8954 16 16 16C17.1046 16 18 16.8954 18 18V21.8772C21.1405 17.1406 26.443 14 32.4848 14C42.2158 14 50 22.1173 50 32C50 41.8827 42.2158 50 32.4848 50C24.6799 50 18.1188 44.7673 15.8368 37.6073C15.5013 36.5549 16.0826 35.4299 17.135 35.0944C18.1874 34.759 19.3124 35.3402 19.6479 36.3927C21.4377 42.0084 26.5386 46 32.4848 46C39.8915 46 46 39.7904 46 32C46 24.2096 39.8915 18 32.4848 18C27.9126 18 23.8463 20.3552 21.3921 24Z" fill="#4C79FF"/>
</svg>
