<svg width="64" height="64" viewBox="0 0 64 64" fill="none" xmlns="http://www.w3.org/2000/svg">
<rect width="64" height="64" rx="32" fill="white"/>
<path d="M16 40C17.1046 40 18 40.8954 18 42C18 43.1046 17.1046 44 16 44C14.8954 44 14 43.1046 14 42C14 40.8954 14.8954 40 16 40ZM48 40C49.1046 40 50 40.8954 50 42C50 43.1046 49.1046 44 48 44H24C22.8954 44 22 43.1046 22 42C22 40.8954 22.8954 40 24 40H48ZM16 30C17.1046 30 18 30.8954 18 32C18 33.1046 17.1046 34 16 34C14.8954 34 14 33.1046 14 32C14 30.8954 14.8954 30 16 30ZM48 30C49.1046 30 50 30.8954 50 32C50 33.1046 49.1046 34 48 34H24C22.8954 34 22 33.1046 22 32C22 30.8954 22.8954 30 24 30H48ZM16 20C17.1046 20 18 20.8954 18 22C18 23.1046 17.1046 24 16 24C14.8954 24 14 23.1046 14 22C14 20.8954 14.8954 20 16 20ZM48 20C49.1046 20 50 20.8954 50 22C50 23.1046 49.1046 24 48 24H24C22.8954 24 22 23.1046 22 22C22 20.8954 22.8954 20 24 20H48Z" fill="#4C79FF"/>
</svg>
