<svg width="264" height="298" viewBox="0 0 264 298" fill="none" xmlns="http://www.w3.org/2000/svg">
<path d="M12 0.5H252C258.351 0.5 263.5 5.64873 263.5 12V286C263.5 292.351 258.351 297.5 252 297.5H12C5.64873 297.5 0.5 292.351 0.5 286V12C0.500004 5.64873 5.64873 0.5 12 0.5Z" fill="url(#paint0_linear_74_2084)"/>
<path d="M12 0.5H252C258.351 0.5 263.5 5.64873 263.5 12V286C263.5 292.351 258.351 297.5 252 297.5H12C5.64873 297.5 0.5 292.351 0.5 286V12C0.500004 5.64873 5.64873 0.5 12 0.5Z" stroke="#4C79FF"/>
<path d="M102.4 258V248.102H104.178V252.299H108.785V248.102H110.576V258H108.785V253.789H104.178V258H102.4ZM124.562 253.051C124.569 256.25 122.614 258.137 120.023 258.137C117.419 258.137 115.478 256.243 115.484 253.051C115.478 249.852 117.419 247.965 120.023 247.965C122.614 247.965 124.569 249.852 124.562 253.051ZM117.275 253.051C117.269 255.313 118.41 256.537 120.023 256.537C121.644 256.537 122.778 255.313 122.771 253.051C122.778 250.788 121.644 249.564 120.023 249.564C118.41 249.564 117.269 250.788 117.275 253.051ZM135.719 248.102H137.51V254.568C137.503 256.694 135.903 258.15 133.49 258.15C131.063 258.15 129.478 256.694 129.471 254.568V248.102H131.248V254.418C131.255 255.669 132.123 256.558 133.49 256.564C134.857 256.558 135.719 255.669 135.719 254.418V248.102ZM142.664 258V248.102H146.383C148.652 248.102 149.862 249.373 149.869 251.26C149.862 252.606 149.247 253.604 148.085 254.076L150.225 258H148.242L146.301 254.377H144.441V258H142.664ZM144.441 252.887H146.109C147.449 252.894 148.051 252.319 148.051 251.26C148.051 250.207 147.449 249.592 146.109 249.592H144.441V252.887ZM160.109 250.822C160.021 249.968 159.303 249.476 158.236 249.482C157.108 249.476 156.438 250.022 156.432 250.768C156.425 251.602 157.307 251.943 158.127 252.135L159.057 252.381C160.533 252.723 161.955 253.502 161.955 255.225C161.955 256.961 160.581 258.15 158.209 258.15C155.905 258.15 154.442 257.043 154.367 255.088H156.117C156.199 256.12 157.067 256.626 158.195 256.633C159.364 256.626 160.171 256.059 160.178 255.211C160.171 254.432 159.46 254.104 158.387 253.83L157.266 253.543C155.639 253.119 154.627 252.299 154.627 250.877C154.627 249.127 156.179 247.965 158.264 247.965C160.362 247.965 161.791 249.147 161.818 250.822H160.109Z" fill="#4C79FF"/>
<defs>
<linearGradient id="paint0_linear_74_2084" x1="0" y1="0" x2="295.827" y2="262.075" gradientUnits="userSpaceOnUse">
<stop stop-color="#4C79FF" stop-opacity="0"/>
<stop offset="1" stop-color="#4C79FF" stop-opacity="0.2"/>
</linearGradient>
</defs>
</svg>
